Coordinates
version=1
nRows=5
nColumns=40
inDegrees=yes

Units are S.I. units (second, meters, Newtons, ...)
Angles are in degrees.

endheader
time	pelvis_tilt	pelvis_list	pelvis_rotation	pelvis_tx	pelvis_ty	pelvis_tz	hip_flexion_r	hip_adduction_r	hip_rotation_r	knee_angle_r	knee_angle_r_beta	ankle_angle_r	subtalar_angle_r	mtp_angle_r	hip_flexion_l	hip_adduction_l	hip_rotation_l	knee_angle_l	knee_angle_l_beta	ankle_angle_l	subtalar_angle_l	mtp_angle_l	lumbar_extension	lumbar_bending	lumbar_rotation	arm_flex_r	arm_add_r	arm_rot_r	elbow_flex_r	pro_sup_r	wrist_flex_r	wrist_dev_r	arm_flex_l	arm_add_l	arm_rot_l	elbow_flex_l	pro_sup_l	wrist_flex_l	wrist_dev_l
      2.64000000	      1.54232615	     -2.33175943	     -3.96742540	      0.51766960	      0.88894188	     -1.45236997	     -8.81803549	      2.47497822	    -11.47610927	    -23.44763486	     -0.40923843	     12.51753441	      1.08280115	     -4.98327951	     19.96756380	      2.98714656	     12.73013669	    -13.77227618	     -0.24037156	     -7.53606821	     -4.79781595	     -7.20604446	    -10.07842311	      2.41723894	      6.18337727	     16.36681967	    -11.24111591	     16.70425450	     21.60386535	     89.95437384	      0.00000000	      0.00000000	     -3.65785014	      7.49465911	    -10.93833208	     16.90943619	     89.95437384	      0.00000000	      0.00000000
      2.65000000	      1.32969976	     -2.22195892	     -4.06047884	      0.52674552	      0.88890468	     -1.45305095	     -8.81729647	      2.21461557	    -11.14146909	    -24.05220658	     -0.41979020	     12.06393100	      1.02135900	     -4.86653910	     19.97775301	      2.79886127	     12.38276391	    -14.31988008	     -0.24992906	     -7.56327743	     -4.64392542	     -7.03793087	     -9.80585615	      2.26865044	      6.00794626	     15.97621917	    -11.08197732	     16.63330785	     21.98046429	     89.95437384	      0.00000000	      0.00000000	     -3.82539350	      7.49448228	    -10.90640884	     17.22277260	     89.95437384	      0.00000000	      0.00000000
      2.66000000	      1.47110763	     -1.54268696	     -4.28001107	      0.53554942	      0.88971339	     -1.45404885	     -8.82529884	      1.20996067	    -10.68629973	    -25.23924687	     -0.44050796	     11.08053824	      0.41998182	     -4.67313554	     19.43169095	      2.00374864	     12.49281908	    -14.54146640	     -0.25379647	     -7.36896765	     -4.14179842	     -6.94619845	     -9.89720370	      1.47669419	      5.83438666	     16.01667181	    -10.62696176	     16.44401772	     21.45158196	     89.95437384	      0.00000000	      0.00000000	     -3.43913448	      7.40772278	    -11.42638237	     16.48989365	     89.95437384	      0.00000000	      0.00000000
      2.67000000	      1.27059520	     -1.44939933	     -4.23780438	      0.54493722	      0.89009670	     -1.45467827	     -8.80972572	      1.02890015	    -10.36961571	    -25.85957092	     -0.45133466	     10.62042700	      0.37629528	     -4.55827704	     19.34570300	      1.87573725	     12.30782120	    -15.07623181	     -0.26312988	     -7.28617846	     -3.88934843	     -6.78188340	     -9.57503717	      1.34027406	      5.58860794	     15.47505554	    -10.43882899	     16.38189860	     21.76249087	     89.95437384	      0.00000000	      0.00000000	     -3.56671865	      7.46910370	    -11.40149214	     16.81511415	     89.95437384	      0.00000000	      0.00000000
      2.68000000	      1.64881796	     -0.39150972	     -4.53208263	      0.55421809	      0.89165587	     -1.45597529	     -8.87542454	     -0.47373740	     -9.98829898	    -27.32750109	     -0.47695487	      9.06821186	     -0.95730605	     -4.09576344	     18.10964111	      0.27076577	     11.24245829	    -14.66331107	     -0.25592306	     -5.93496363	     -0.85038943	     -6.51947768	     -9.83923937	      0.15782186	      5.55562114	     15.31543670	     -9.85361124	     15.06626838	     21.24413308	     89.95437384	      0.00000000	      0.00000000	     -3.18593847	      7.73301111	    -13.88864100	     16.47106031	     89.95437384	      0.00000000	      0.00000000
